{"accessors":[{"name":"white_kitty-0_1_positions","componentType":5126,"count":3803,"min":[-9,0,-24],"max":[9,36,24],"type":"VEC3","bufferView":0,"byteOffset":0},{"name":"white_kitty-0_1_normals","componentType":5126,"count":3803,"min":[-1,-1,-1],"max":[1,1,1],"type":"VEC3","bufferView":0,"byteOffset":45636},{"name":"white_kitty-0_1_texcoords","componentType":5126,"count":3803,"min":[0.05664059892296791,0.5],"max":[0.9941409826278687,0.5],"type":"VEC2","bufferView":1,"byteOffset":0},{"name":"white_kitty-0_1_0_indices","componentType":5123,"count":7512,"min":[0],"max":[3802],"type":"SCALAR","bufferView":2,"byteOffset":0}],"asset":{"generator":"obj2gltf","version":"2.0"},"buffers":[{"name":"white_kitty-0","byteLength":138748,"uri":"data:application/octet-stream;base64,"}],"bufferViews":[{"name":"bufferView_0","buffer":0,"byteLength":91272,"byteOffset":0,"byteStride":12,"target":34962},{"name":"bufferView_1","buffer":0,"byteLength":30424,"byteOffset":91272,"byteStride":8,"target":34962},{"name":"bufferView_2","buffer":0,"byteLength":15024,"byteOffset":121696,"target":34963},{"buffer":0,"byteOffset":136720,"byteLength":2025}],"images":[{"name":"white_kitty-0","mimeType":"image/png","bufferView":3}],"materials":[{"name":"palette","pbrMetallicRoughness":{"baseColorTexture":{"index":0},"baseColorFactor":[1,1,1,1],"metallicFactor":0,"roughnessFactor":1},"emissiveFactor":[0,0,0],"alphaMode":"OPAQUE","doubleSided":false}],"meshes":[{"name":"white_kitty-0_1","primitives":[{"attributes":{"POSITION":0,"NORMAL":1,"TEXCOORD_0":2},"indices":3,"material":0,"mode":4}]}],"nodes":[{"name":"white_kitty-0","mesh":0}],"samplers":[{"magFilter":9729,"minFilter":9986,"wrapS":10497,"wrapT":10497}],"scene":0,"scenes":[{"nodes":[0]}],"textures":[{"name":"white_kitty-0","sampler":0,"source":0}]}
